<?xml version="1.0" encoding="UTF-8"?>
<svg width="171.090231px" height="36.3363368px" viewBox="0 0 171.090231 36.3363368" version="1.1" xmlns="http://www.w3.org/2000/svg" xmlns:xlink="http://www.w3.org/1999/xlink">
    <title>Logo</title>
    <defs>
        <polygon id="path-1" points="19.5281779 0.176723684 0.413892216 0.176723684 0.413892216 24.0054539 19.5281779 24.0054539 19.5281779 0.176723684"></polygon>
    </defs>
    <g id="Symbols" stroke="none" stroke-width="1" fill="none" fill-rule="evenodd">
        <g id="Header-/-Desktop" transform="translate(-426.000000, -22.487037)">
            <g id="Logo" transform="translate(426.000000, 22.000000)">
                <path d="M0,6.73365921 L5.16030796,6.73365921 L5.16030796,9.18101447 C6.34901625,7.73217237 7.90983747,6.41185658 10.5248931,6.41185658 C12.9007699,6.41185658 14.6997434,7.40988289 15.6508127,9.14888289 C17.2465355,7.37775132 19.1476476,6.41185658 21.625663,6.41185658 C25.4627887,6.41185658 27.7704021,8.60118553 27.7704021,12.7558961 L27.7704021,23.9941592 L22.6100941,23.9941592 L22.6100941,14.3653961 C22.6100941,12.0470539 21.5235244,10.8557513 19.5885372,10.8557513 C17.6540633,10.8557513 16.465355,12.0470539 16.465355,14.3653961 L16.465355,23.9941592 L11.305047,23.9941592 L11.305047,14.3653961 C11.305047,12.0470539 10.2184773,10.8557513 8.28349016,10.8557513 C6.34901625,10.8557513 5.16030796,12.0470539 5.16030796,14.3653961 L5.16030796,23.9941592 L0,23.9941592 L0,6.73365921 L0,6.73365921 Z" id="Fill-1" fill="#FFFFFF"></path>
                <path d="M44.2372455,15.4606934 L44.2372455,15.3959434 C44.2372455,12.8526803 42.3022583,10.6297592 39.4505902,10.6297592 C36.4967836,10.6297592 34.7311719,12.7879303 34.7311719,15.3316803 L34.7311719,15.3959434 C34.7311719,17.9401803 36.6661591,20.1616408 39.5178272,20.1616408 C42.4716339,20.1616408 44.2372455,18.0049303 44.2372455,15.4606934 M29.6386142,15.4606934 L29.6386142,15.3959434 C29.6386142,10.4369697 33.8488794,6.41224605 39.5178272,6.41224605 C45.1539264,6.41224605 49.3303165,10.3722197 49.3303165,15.3316803 L49.3303165,15.3959434 C49.3303165,20.3554039 45.1195381,24.3806145 39.4505902,24.3806145 C33.814491,24.3806145 29.6386142,20.4191803 29.6386142,15.4606934" id="Fill-3" fill="#FFFFFF"></path>
                <g id="Group-7" transform="translate(50.812660, 0.310313)">
                    <mask id="mask-2" fill="white">
                        <use xlink:href="#path-1"></use>
                    </mask>
                    <g id="Clip-6"></g>
                    <path d="M14.4351069,15.0855329 L14.4351069,15.0217566 C14.4351069,12.1547434 12.4328828,10.2555724 10.0221044,10.2555724 C7.61132592,10.2555724 5.57471343,12.1230987 5.57471343,15.0217566 L5.57471343,15.0855329 C5.57471343,17.9520592 7.61132592,19.8517171 10.0221044,19.8517171 C12.4328828,19.8517171 14.4351069,17.9520592 14.4351069,15.0855329 M0.413892216,15.0855329 L0.413892216,15.0217566 C0.413892216,9.25705921 4.38600513,6.10183553 8.69789564,6.10183553 C11.4474251,6.10183553 13.1452866,7.29313816 14.36787,8.67771711 L14.36787,0.176480263 L19.5281779,0.176480263 L19.5281779,23.6836513 L14.36787,23.6836513 L14.36787,21.2041645 C13.1108982,22.8141513 11.3801882,24.0054539 8.69789564,24.0054539 C4.45426861,24.0054539 0.413892216,20.8497434 0.413892216,15.0855329" id="Fill-5" fill="#FFFFFF" mask="url(#mask-2)"></path>
                </g>
                <path d="M92.2107613,6.73365921 L97.3710693,6.73365921 L97.3710693,10.2116592 C98.4237639,7.82808026 100.120599,6.28235658 103.176544,6.41185658 L103.176544,11.5314882 L102.90503,11.5314882 C99.4764585,11.5314882 97.3710693,13.4958961 97.3710693,17.6175013 L97.3710693,23.9941592 L92.2107613,23.9941592 L92.2107613,6.73365921 Z" id="Fill-8" fill="#FFFFFF"></path>
                <path d="M105.29923,6.73365921 L110.459538,6.73365921 L110.459538,9.18101447 C111.648246,7.73217237 113.175706,6.41185658 115.789222,6.41185658 C119.694098,6.41185658 121.968862,8.858725 121.968862,12.8196724 L121.968862,23.9941592 L116.808554,23.9941592 L116.808554,14.3653961 C116.808554,12.0470539 115.653721,10.8557513 113.684859,10.8557513 C111.715483,10.8557513 110.459538,12.0470539 110.459538,14.3653961 L110.459538,23.9941592 L105.29923,23.9941592 L105.29923,6.73365921 Z" id="Fill-10" fill="#FFFFFF"></path>
                <polygon id="Fill-12" fill="#FFFFFF" points="124.325749 4.83356316 129.757571 4.83356316 129.757571 0.487036842 124.325749 0.487036842"></polygon>
                <polygon id="Fill-14" fill="#FFFFFF" points="124.461762 23.9942079 129.62207 23.9942079 129.62207 6.73370789 124.461762 6.73370789"></polygon>
                <path d="M81.2925577,10.3402829 C83.3348161,10.3402829 84.6569718,11.6498882 85.0619333,13.6245197 L77.4374679,13.6245197 C77.9301967,11.6231118 79.2800684,10.3402829 81.2925577,10.3402829 M90.1529512,15.7822039 C90.1529512,10.8874934 87.3695466,6.41195395 81.2925577,6.41195395 C75.9962361,6.41195395 72.295124,10.4692961 72.295124,15.3956513 L72.295124,15.4608882 C72.295124,20.7416645 76.3355004,24.3803224 81.8011976,24.3803224 C85.0947819,24.3803224 87.5394354,23.157375 89.2362703,21.1603487 L86.2834902,18.6808618 C84.8571429,19.9359408 83.6011976,20.4515066 81.8694611,20.4515066 C79.5608212,20.4515066 77.9312233,19.2928224 77.4220701,17.0703882 L90.0857143,17.0703882 C90.1195894,16.6200592 90.1529512,16.1687566 90.1529512,15.7822039" id="Fill-15" fill="#FFFFFF"></path>
                <polygon id="Fill-16" fill="#FFFFFF" points="147.649581 10.1794789 147.649581 6.73361053 132.134782 6.73361053 132.134782 10.6945579 141.233328 10.6945579 131.829393 20.5482421 131.829393 23.9941105 134.404414 23.9941105"></polygon>
                <path d="M157.703251,20.4514092 C157.64166,20.4514092 157.582121,20.4470276 157.521557,20.4455671 L160.865954,23.9235671 C162.590505,23.3968039 163.984003,22.4382118 165.07006,21.1602513 L162.11728,18.6807645 C160.690932,19.9363303 159.434987,20.4514092 157.703251,20.4514092" id="Fill-17" fill="#FFFFFF"></path>
                <path d="M153.271463,13.6246171 C153.763678,11.6232092 155.114063,10.3403803 157.126553,10.3403803 C159.168811,10.3403803 160.490453,11.6494987 160.895415,13.6246171 L153.271463,13.6246171 Z M157.126553,6.41205132 C153.310984,6.41205132 150.332541,8.52299868 148.960086,11.5423934 L154.275911,17.0704855 L165.919709,17.0704855 C165.953071,16.6201566 165.986946,16.1688539 165.986946,15.7823013 C165.986946,10.8875908 163.203541,6.41205132 157.126553,6.41205132 L157.126553,6.41205132 Z" id="Fill-18" fill="#FFFFFF"></path>
                <polygon id="Fill-19" fill="#FEC14B" points="142.692729 23.9995632 147.649786 23.9995632 147.649786 20.0327737 142.692729 20.0327737"></polygon>
                <polygon id="Fill-20" fill="#FFFFFF" points="0 36.7454789 0 31.2889526 1.31804962 31.2889526 1.31804962 33.5055447 3.59538067 33.5055447 3.59538067 31.2889526 4.91343028 31.2889526 4.91343028 36.7454789 3.59538067 36.7454789 3.59538067 34.4792289 1.31804962 34.4792289 1.31804962 36.7454789"></polygon>
                <path d="M9.79180496,35.8642947 C10.8178101,35.8642947 11.2971942,35.0332553 11.2971942,34.0172158 C11.2971942,33.0011763 10.8029256,32.1701368 9.78410607,32.1701368 C8.75810094,32.1701368 8.27871685,33.0011763 8.27871685,34.0172158 C8.27871685,35.0332553 8.77298546,35.8642947 9.79180496,35.8642947 M9.79180496,31.2110579 C11.6421044,31.2110579 12.6306416,32.4184263 12.6306416,34.0172158 C12.6306416,35.6014 11.64929,36.8233737 9.78410607,36.8233737 C7.93431993,36.8233737 6.94526946,35.6160053 6.94526946,34.0172158 C6.94526946,32.4330316 7.92662104,31.2110579 9.79180496,31.2110579" id="Fill-21" fill="#FFFFFF"></path>
                <polygon id="Fill-22" fill="#FFFFFF" points="20.8494611 31.28905 20.8494611 36.7455763 19.546296 36.7455763 19.546296 33.1434316 19.5314115 33.1434316 18.2949701 36.7455763 17.1868435 36.7455763 15.9509153 33.15755 15.9360308 33.15755 15.9360308 36.7455763 14.6626347 36.7455763 14.6626347 31.28905 16.437485 31.28905 17.7637468 35.2183526 17.7786313 35.2183526 19.0966809 31.28905"></polygon>
                <polygon id="Fill-23" fill="#FFFFFF" points="23.1062618 36.7454789 23.1062618 31.2889526 27.1286741 31.2889526 27.1286741 32.2553342 24.4171257 32.2553342 24.4171257 33.5128474 26.7688794 33.5128474 26.7688794 34.4719263 24.4171257 34.4719263 24.4171257 35.7790974 27.1810265 35.7790974 27.1810265 36.7454789"></polygon>
                <polygon id="Fill-24" fill="#FFFFFF" points="32.6437981 36.7454789 32.6437981 31.2889526 36.2017109 31.2889526 36.2017109 31.6794 33.1082977 31.6794 33.1082977 33.7971632 35.8347305 33.7971632 35.8347305 34.1876105 33.1082977 34.1876105 33.1082977 36.3550316 36.2540633 36.3550316 36.2540633 36.7454789"></polygon>
                <polygon id="Fill-25" fill="#FFFFFF" points="44.0979983 31.28905 44.0979983 36.7455763 43.6334987 36.7455763 43.6334987 31.9000368 43.6186142 31.9000368 41.5137382 36.7455763 41.079521 36.7455763 38.974645 31.9141553 38.9597605 31.9141553 38.9597605 36.7455763 38.5029598 36.7455763 38.5029598 31.28905 39.184568 31.28905 41.2966296 36.1487079 41.3115141 36.1487079 43.4163901 31.28905"></polygon>
                <path d="M49.006296,33.9674605 C49.5005646,33.9674605 49.9127117,33.7045658 49.9127117,33.115 C49.9127117,32.5254342 49.5005646,32.2552368 49.006296,32.2552368 L47.838118,32.2552368 L47.838118,33.9674605 L49.006296,33.9674605 Z M49.1335843,31.2888553 C50.2945766,31.2888553 51.2461591,31.9358684 51.2461591,33.0935789 C51.2461591,34.2590789 50.31716,34.9338421 49.1110009,34.9338421 L47.838118,34.9338421 L47.838118,36.7453816 L46.5195552,36.7453816 L46.5195552,31.2888553 L49.1335843,31.2888553 Z" id="Fill-26" fill="#FFFFFF"></path>
                <path d="M55.7869119,35.8642947 C56.812917,35.8642947 57.2923011,35.0332553 57.2923011,34.0172158 C57.2923011,33.0011763 56.7980325,32.1701368 55.779213,32.1701368 C54.7532079,32.1701368 54.2738238,33.0011763 54.2738238,34.0172158 C54.2738238,35.0332553 54.7680924,35.8642947 55.7869119,35.8642947 M55.7869119,31.2110579 C57.6372113,31.2110579 58.6257485,32.4184263 58.6257485,34.0172158 C58.6257485,35.6014 57.6443969,36.8233737 55.779213,36.8233737 C53.9294269,36.8233737 52.9403764,35.6160053 52.9403764,34.0172158 C52.9403764,32.4330316 53.921728,31.2110579 55.7869119,31.2110579" id="Fill-27" fill="#FFFFFF"></path>
                <polygon id="Fill-28" fill="#FFFFFF" points="68.1776561 31.28905 66.5598631 36.7455763 65.143781 36.7455763 64.1480582 33.0299974 64.1326604 33.0299974 63.1292387 36.7455763 61.6839008 36.7455763 60.0655945 31.28905 61.4442087 31.28905 62.4779127 35.2037474 62.4927973 35.2037474 63.4510522 31.28905 64.8671343 31.28905 65.8259025 35.1613921 65.840787 35.1613921 66.8519076 31.28905"></polygon>
                <polygon id="Fill-29" fill="#FFFFFF" points="69.9778614 36.7454789 69.9778614 31.2889526 74.0002737 31.2889526 74.0002737 32.2553342 71.2887254 32.2553342 71.2887254 33.5128474 73.640479 33.5128474 73.640479 34.4719263 71.2887254 34.4719263 71.2887254 35.7790974 74.0526262 35.7790974 74.0526262 36.7454789"></polygon>
                <path d="M77.3573995,33.676475 L78.5856287,33.676475 C78.9977759,33.676475 79.3421728,33.4486329 79.3421728,32.9656855 C79.3421728,32.4754355 78.9977759,32.2553829 78.5856287,32.2553829 L77.3573995,32.2553829 L77.3573995,33.676475 Z M78.3834046,34.6282513 L77.3573995,34.6282513 L77.3573995,36.7455276 L76.0388366,36.7455276 L76.0388366,31.2890013 L78.7355004,31.2890013 C79.8590248,31.2890013 80.6679213,31.8644487 80.6679213,32.8804882 C80.6679213,33.5980934 80.2480753,34.1024618 79.6193328,34.3439355 L80.8326775,36.7455276 L79.3868263,36.7455276 L78.3834046,34.6282513 Z" id="Fill-30" fill="#FFFFFF"></path>
                <polygon id="Fill-31" fill="#FFFFFF" points="88.444568 31.28905 88.444568 36.7455763 87.9805817 36.7455763 87.9805817 31.9000368 87.9651839 31.9000368 85.860308 36.7455763 85.4260907 36.7455763 83.3212147 31.9141553 83.3063302 31.9141553 83.3063302 36.7455763 82.8495295 36.7455763 82.8495295 31.28905 83.5311377 31.28905 85.6437126 36.1487079 85.6580838 36.1487079 87.7629598 31.28905"></polygon>
                <polygon id="Fill-32" fill="#FFFFFF" points="91.0311377 36.7454789 91.0311377 31.2889526 94.5890505 31.2889526 94.5890505 31.6794 91.495124 31.6794 91.495124 33.7971632 94.2215569 33.7971632 94.2215569 34.1876105 91.495124 34.1876105 91.495124 36.3550316 94.6414029 36.3550316 94.6414029 36.7454789"></polygon>
                <polygon id="Fill-33" fill="#FFFFFF" points="101.376493 31.28905 101.376493 36.7455763 100.964859 36.7455763 97.3617793 32.0066553 97.3468948 32.0066553 97.3468948 36.7455763 96.8900941 36.7455763 96.8900941 31.28905 97.3694782 31.28905 100.904808 35.9500763 100.919692 35.9500763 100.919692 31.28905"></polygon>
                <polygon id="Fill-34" fill="#FFFFFF" points="105.498118 36.7454789 105.498118 31.6794 103.386056 31.6794 103.386056 31.2889526 108.075192 31.2889526 108.075192 31.6794 105.962618 31.6794 105.962618 36.7454789"></polygon>
                <path d="M109.297314,32.1191158 C109.316818,32.1824053 109.334269,32.2101553 109.371737,32.2374184 C109.426142,32.2802605 109.513909,32.3026553 109.615021,32.3026553 C109.773105,32.3026553 109.872678,32.2354711 109.872678,32.1288526 C109.872678,32.0543658 109.820325,32.0066553 109.711001,31.9789053 L109.461044,31.9175632 C109.328623,31.8844579 109.262412,31.8508658 109.215706,31.7919579 C109.16438,31.7306158 109.13923,31.65905 109.13923,31.5792079 C109.13923,31.3586684 109.322977,31.2111553 109.599624,31.2111553 C109.739743,31.2111553 109.864465,31.2481553 109.958392,31.3182605 C110.01485,31.3625632 110.044106,31.4015105 110.067716,31.4774579 L109.844962,31.5290632 C109.81006,31.4351026 109.732558,31.3903132 109.601677,31.3903132 C109.466689,31.3903132 109.378922,31.4497079 109.378922,31.5417211 C109.378922,31.6142605 109.437434,31.6624579 109.560616,31.6921553 L109.782857,31.7437605 C109.92349,31.7788132 110.007151,31.8236026 110.057451,31.8956553 C110.099025,31.9526158 110.120582,32.0193132 110.120582,32.0952605 C110.120582,32.3304053 109.915278,32.4818132 109.601677,32.4818132 C109.439487,32.4818132 109.305526,32.4428658 109.201334,32.3654579 C109.137177,32.3153132 109.104328,32.2656553 109.07148,32.1658526 L109.297314,32.1191158 Z" id="Fill-35" fill="#FFFFFF"></path>
                <polygon id="Fill-36" fill="#FFFFFF" points="111.358409 32.4633132 111.358409 31.3830105 110.997588 32.4633132 110.874919 32.4633132 110.513584 31.3830105 110.513584 32.4633132 110.322652 32.4633132 110.322652 31.2296553 110.689119 31.2296553 110.960633 32.0251553 111.229581 31.2296553 111.598101 31.2296553 111.598101 32.4633132"></polygon>
                <path d="M167.453071,7.44133289 C167.364277,7.23004342 167.256493,7.16334605 167.022447,7.16334605 C166.807391,7.16334605 166.684722,7.24075395 166.684722,7.37074079 C166.684722,7.50851711 166.774029,7.56839868 167.040924,7.61756974 C167.412524,7.69156974 167.564962,7.73684605 167.69071,7.81814868 C167.89858,7.95203026 168.009957,8.14920132 168.009957,8.37460921 C168.009957,8.62095132 167.869324,8.86388553 167.64657,9.001175 C167.486433,9.10000395 167.2529,9.15258289 166.993191,9.15258289 C166.703199,9.15258289 166.469666,9.08588553 166.283867,8.95200395 C166.127836,8.83564868 166.057519,8.73000395 165.987203,8.50118816 L166.521506,8.38483289 C166.591822,8.61024079 166.747853,8.71247763 167.022447,8.71247763 C167.267784,8.71247763 167.420222,8.61754342 167.420222,8.46613553 C167.420222,8.32495132 167.319624,8.26214868 166.989598,8.19837237 C166.715004,8.14579342 166.554867,8.09613553 166.417314,8.01531974 C166.224328,7.90626711 166.116544,7.71250395 166.116544,7.48028026 C166.116544,7.26168816 166.202258,7.07863553 166.369581,6.93793816 C166.53639,6.79724079 166.740154,6.73346447 167.018854,6.73346447 C167.286262,6.73346447 167.501831,6.79334605 167.66864,6.91310921 C167.798494,7.00512237 167.865731,7.09664868 167.943234,7.28651711 L167.453071,7.44133289 Z" id="Fill-37" fill="#FFFFFF"></path>
                <polygon id="Fill-38" fill="#FFFFFF" points="168.877057 7.20195263 168.877057 9.11767632 168.391001 9.11767632 168.391001 6.76866316 169.293311 6.76866316 169.727015 8.17368947 170.187921 6.76866316 171.090231 6.76866316 171.090231 9.11767632 170.507169 9.11767632 170.507169 7.20195263 169.883559 9.11767632 169.486296 9.11767632"></polygon>
            </g>
        </g>
    </g>
</svg>